<svg xmlns="http://www.w3.org/2000/svg" version="1.1" xmlns:xlink="http://www.w3.org/1999/xlink" xmlns:svgjs="http://svgjs.com/svgjs" width="512" height="512" x="0" y="0" viewBox="0 0 512 512" style="enable-background:new 0 0 512 512" xml:space="preserve"><g><g xmlns="http://www.w3.org/2000/svg"><path d="m113.297 378.222h53.318c22.025 0 39.944-17.919 39.944-39.944s-17.919-39.944-39.944-39.944h-53.318c-22.025 0-39.944 17.919-39.944 39.944s17.919 39.944 39.944 39.944zm0-65.162h53.318c13.905 0 25.218 11.313 25.218 25.218s-11.313 25.218-25.218 25.218h-53.318c-13.905 0-25.218-11.313-25.218-25.218s11.313-25.218 25.218-25.218z" fill="#ffffff" data-original="#000000"></path><path d="m113.297 471.364h53.318c22.025 0 39.944-17.919 39.944-39.944 0-22.026-17.919-39.944-39.944-39.944h-53.318c-22.025 0-39.944 17.919-39.944 39.944 0 22.026 17.919 39.944 39.944 39.944zm0-65.162h53.318c13.905 0 25.218 11.313 25.218 25.218s-11.313 25.218-25.218 25.218h-53.318c-13.905 0-25.218-11.313-25.218-25.218s11.313-25.218 25.218-25.218z" fill="#ffffff" data-original="#000000"></path><path d="m472.512 363.134-18.569-18.569c-2.875-2.874-7.538-2.875-10.413.001-2.876 2.875-2.876 7.537 0 10.413l16.962 16.962-23.779 23.778-9.917-9.915v-15.837c0-6.867-5.586-12.454-12.453-12.454h-10.129c-.562-6.572-3.39-12.676-8.098-17.386-6.039-6.038-14.566-8.983-23.027-8.031l-44.322-44.322v-15.837c0-6.866-5.587-12.453-12.454-12.453h-15.836l-17.354-17.354 30.978-30.978 60.38 60.379c-3.333 4.848-2.846 11.551 1.46 15.858l44.813 44.813c2.875 2.875 7.537 2.875 10.413 0 2.876-2.876 2.876-7.537 0-10.414l-43.353-43.353c3.333-4.848 2.846-11.551-1.46-15.858l-61.84-61.839 10.732-10.732c6.899-6.899 10.7-16.073 10.7-25.831s-3.8-18.932-10.7-25.831l-51.674-51.674c-6.899-6.899-16.073-10.699-25.831-10.699s-18.931 3.8-25.831 10.699l-31.428 31.428-.753-.753c8.564-12.13 13.616-26.908 13.616-42.852 0-41.075-33.417-74.493-74.493-74.493-11.994 0-23.917 2.92-34.481 8.445-3.603 1.884-4.996 6.333-3.112 9.936 1.884 3.604 6.332 4.999 9.937 3.112 8.586-4.491 17.891-6.768 27.656-6.768 29.014 0 53.255 20.784 58.642 48.243-9.211-23.394-32.016-40.003-58.642-40.003-26.645 0-49.464 16.633-58.662 40.054 1.519-7.819 4.587-15.261 9.098-21.939 2.276-3.37 1.39-7.947-1.98-10.223-3.37-2.275-7.947-1.39-10.223 1.98-8.326 12.324-12.727 26.729-12.727 41.656 0 38.591 29.499 70.417 67.131 74.127v14.775c-7.259 1.158-14.253 4.212-20.26 9.102l-47.874 38.967c-17.485 14.231-27.513 35.324-27.513 57.87v109.586c0 4.067 3.297 7.363 7.363 7.363s7.363-3.296 7.363-7.363v-109.585c0-18.096 8.049-35.026 22.083-46.449l47.874-38.967c3.294-2.682 7.042-4.515 10.964-5.489v47.502h-17.252c-14.481 0-26.261 11.781-26.261 26.261s11.781 26.261 26.261 26.261h49.23c14.481 0 26.261-11.781 26.261-26.261 0-4.692-1.243-9.097-3.408-12.913l23.996 23.997c4.468 4.467 9.816 7.532 15.49 9.197v177.186c0 26.255-21.359 47.614-47.614 47.614h-80.011c-26.255 0-47.614-21.359-47.614-47.614v-36.095c0-4.067-3.297-7.363-7.363-7.363s-7.363 3.296-7.363 7.363v36.095c0 34.374 27.966 62.34 62.34 62.34h80.011c34.375 0 62.34-27.966 62.34-62.34v-175.975c7.844-.941 15.439-4.403 21.446-10.409l10.732-10.732 18.019 18.019c2.353 2.353 5.48 3.648 8.806 3.648h14.505v14.505c0 3.327 1.295 6.454 3.647 8.807l45.746 45.746c2.837 2.834 6.838 4.157 10.717 3.542 4.287-.687 8.496.675 11.551 3.729 2.49 2.491 3.871 5.808 3.889 9.34.033 6.815 5.616 12.359 12.445 12.359h10.034v14.506c0 3.326 1.295 6.453 3.647 8.807l12.189 12.187c2.352 2.353 5.48 3.649 8.806 3.649 3.327 0 6.455-1.296 8.806-3.648l26.992-26.993c2.352-2.352 3.648-5.479 3.648-8.806.002-3.326-1.293-6.453-3.645-8.807zm-313.87-203.195c-1.828 1.828-3.432 3.821-4.812 5.937-2.49-.987-5.038-1.73-7.615-2.229v-15.026c16.912-1.667 32.167-9.023 43.854-20.11l.001.001zm-19.79-122.247c26.624 0 48.285 21.66 48.285 48.284 0 6.329-1.236 12.37-3.46 17.914-2.04-.131-4.123.575-5.682 2.133-2.544 2.544-2.833 6.483-.876 9.35-7.415 9.63-18.368 16.402-30.904 18.328v-.175c0-4.067-3.297-7.363-7.363-7.363s-7.363 3.296-7.363 7.363v.175c-23.142-3.556-40.922-23.603-40.922-47.724 0-26.624 21.66-48.285 48.285-48.285zm24.614 226.036h-49.23c-6.361 0-11.535-5.175-11.535-11.535s5.175-11.535 11.535-11.535h17.868c1.137 2.6 3.728 4.418 6.746 4.418s5.61-1.818 6.746-4.418h17.868c6.361 0 11.535 5.175 11.535 11.535s-5.172 11.535-11.533 11.535zm0-37.797h-17.252v-47.124c.759.23 1.509.499 2.254.796-.341 2.019-.526 4.078-.526 6.167 0 9.758 3.8 18.932 10.7 25.831l17.738 17.738c-3.817-2.165-8.221-3.408-12.914-3.408zm88.099 26.932c-8.502 8.502-22.334 8.502-30.836 0l-51.674-51.675c-4.118-4.118-6.387-9.593-6.387-15.417s2.268-11.3 6.387-15.417l31.428-31.428 6.82 6.82c-6.237 10.834-4.735 24.94 4.516 34.193 5.354 5.354 12.473 8.303 20.045 8.303s14.691-2.949 20.045-8.303v-.001c11.052-11.052 11.052-29.036 0-40.089-9.251-9.251-23.358-10.754-34.193-4.516l-6.82-6.82 31.427-31.427c4.118-4.119 9.594-6.387 15.418-6.387s11.3 2.268 15.418 6.387l51.674 51.674c4.118 4.118 6.387 9.593 6.387 15.417s-2.268 11.3-6.387 15.417zm-29.332-83.338c-3.42-3.42-4.625-8.219-3.64-12.623 2.905 2.142 6.968 1.869 9.559-.722 2.61-2.61 2.843-6.686.716-9.568.974-.218 1.975-.341 2.997-.341 3.638 0 7.059 1.417 9.632 3.989 5.31 5.311 5.31 13.953 0 19.265v-.001c-5.311 5.314-13.953 5.313-19.264.001z" fill="#ffffff" data-original="#000000"></path><path d="m123.938 447.179c2.875 2.875 7.537 2.875 10.413 0l5.346-5.345 5.346 5.345c2.875 2.875 7.537 2.875 10.413 0 2.876-2.876 2.876-7.538 0-10.414l-5.345-5.345 5.345-5.345c2.876-2.876 2.876-7.537 0-10.414-2.875-2.874-7.537-2.874-10.413 0l-5.346 5.345-5.346-5.345c-2.875-2.874-7.537-2.874-10.413 0-2.876 2.876-2.876 7.538 0 10.414l5.345 5.345-5.345 5.345c-2.876 2.876-2.876 7.538 0 10.414z" fill="#ffffff" data-original="#000000"></path><path d="m127.149 351.408c1.846 1.847 4.301 2.865 6.912 2.865s5.066-1.017 6.91-2.863l19.207-19.207c2.876-2.876 2.876-7.537 0-10.414-2.875-2.874-7.537-2.874-10.413 0l-15.705 15.705-4.208-4.208c-2.875-2.874-7.537-2.874-10.413 0-2.876 2.876-2.876 7.537 0 10.414z" fill="#ffffff" data-original="#000000"></path></g></g></svg>