<svg xmlns="http://www.w3.org/2000/svg" version="1.1" xmlns:xlink="http://www.w3.org/1999/xlink" xmlns:svgjs="http://svgjs.com/svgjs" width="512" height="512" x="0" y="0" viewBox="0 0 512.009 512.009" style="enable-background:new 0 0 512 512" xml:space="preserve" class=""><g><g xmlns="http://www.w3.org/2000/svg"><path d="m468.972 503.287-14.982-90.738c-2.958-17.916-11.951-34.549-25.324-46.835-6.91-6.352-17.374 4.407-10.148 11.045 10.917 10.03 18.259 23.608 20.674 38.233l7.771 47.065c-5.962-11.021-10.957-22.406-16.677-33.559-6.242-12.361-17.941-24.234-32.097-32.575-6.874-4.05-24.168-12.88-36.279-7.465-5.432 2.43-8.069 8.303-9.35 13.793-19.855-13.862-42.495-23.275-66.24-27.639l56.835-34.046 39.928 16.962c8.499 3.608 14.985-9.931 5.865-13.807l-41.775-17.747-17.912-24.794c24.216-11.301 40.138-36.012 40.138-63.121v-103.882-28.086l10.419-23.464c10.054-22.643-2.509-49.984-26.263-56.948l-77.788-22.812c-13.027-3.821-26.802-3.821-39.806-.006l-35.127 10.183c-9.014 2.613-5.247 17.144 4.176 14.406l35.149-10.188c10.267-3.012 21.118-3.012 31.387 0l77.788 22.813c15.261 4.474 23.207 21.978 16.774 36.466l-9.086 20.462h-202.34l-9.086-20.462c-3.135-7.061-3.07-15.129.177-22.139 3.224-6.957 9.272-12.18 16.598-14.327 9.006-2.642 5.199-17.148-4.221-14.395-11.475 3.364-20.946 11.535-25.987 22.417-5.065 10.933-5.165 23.519-.275 34.531l10.419 23.464v28.086 103.882c0 27.108 15.922 51.819 40.138 63.121l-18.044 24.977-57.741 24.53c-25.878 10.993-44.063 34.118-48.644 61.86l-14.96 90.607c-.897 4.759 2.841 8.547 7.386 8.854 2.767 0 5.367-1.601 6.644-4.038l17.661-33.925c4.637 7.247 12.098 12.412 20.711 13.623-1.523 4.613-2.853 9.299-3.977 14.055-2.127 8.995 12.244 13.41 14.598 3.451 3.926-16.608 10.55-32.308 19.699-46.732 4.302-.241 8.69-1.347 13.035-3.637 13.491-7.111 19.598-21.562 21.207-34.505 27.132-21.609 61.039-33.478 95.834-33.478 34.593 0 68.939 12.006 95.979 33.596 1.631 12.914 7.741 27.298 21.191 34.387 4.302 2.267 8.643 3.37 12.904 3.626 9.101 14.347 15.791 30.207 19.7 46.743 2.199 9.305 16.834 6.006 14.598-3.451-1.123-4.749-2.449-9.429-3.97-14.037 8.148-1.111 16.064-6.046 20.457-13.054l18.094 33.444c3.875 7.168 15.555 3.627 14.165-4.79zm-187.205-143.433c-5.025-12.198-10.049-24.395-15.074-36.593 16.433-2.613 32.622-10.686 48.122-16.463l16.769 23.213zm72.632-247.853v14.676h-197.092v-14.676zm-.899 29.676c-3.351 13.703-15.668 23.896-30.309 23.896h-134.676c-14.641 0-26.958-10.193-30.309-23.896zm-196.193 96.382v-69.701c8.228 7.58 19.188 12.216 31.208 12.216h134.676c12.02 0 22.98-4.636 31.208-12.216v69.701c0 22.717-14.232 43.283-35.416 51.178l-3.848 1.434-59.281 18.123-59.296-18.128-3.834-1.429c-21.184-7.895-35.417-28.461-35.417-51.178zm39.583 68.74c15.5 5.777 31.688 13.849 48.123 16.462-5.025 12.198-10.049 24.395-15.074 36.593l-49.817-29.843zm-84.365 57.696 56.151-23.855 56.71 33.972c-23.701 4.356-46.301 13.741-66.13 27.562-1.288-5.467-3.925-11.297-9.331-13.716-12.114-5.416-29.407 3.415-36.279 7.465-14.111 8.315-25.778 20.14-32.035 32.459-.006.012-.014.022-.02.034l-16.098 30.924 7.322-44.348c3.74-22.646 18.585-41.524 39.71-50.497zm-13.038 108.466c-10.217 0-17.419-11.372-12.903-20.609l3.968-8.116c4.852 3.974 11.608 8.635 19.307 11.518-3.238 5.546-6.148 11.252-8.718 17.103-.549.065-1.1.104-1.654.104zm32.331-31.424c-12.048 6.35-27.15-4.81-34.143-10.999 12.624-19.254 38.478-30.731 45.658-28.561.997 1.484 2.479 6.639 2.06 13.755-.003.035-.004.07-.007.105-.09 1.473-.256 3.023-.531 4.648-.983 5.814-3.984 16.28-13.037 21.052zm110.626-69.17-.74-1.692 14.149-34.348 7.34 17.817 6.919 16.796-.524 1.452c-4.557-.373-9.138-.57-13.734-.57-4.488.001-8.96.19-13.41.545zm124.536 48.118c-1.613-9.535.313-16.71 1.521-18.508 7.177-2.176 33.048 9.316 45.668 28.574-6.965 6.198-22.027 17.378-34.152 10.985-9.052-4.771-12.053-15.237-13.037-21.051zm57.225 45.88c-2.925 4.44-8.329 7.159-13.653 6.467-2.561-5.827-5.459-11.511-8.682-17.036 7.743-2.88 14.539-7.567 19.415-11.56 1.718 3.235 3.871 6.921 4.865 10.497 1.056 3.683.162 8.578-1.945 11.632z" fill="#ffffff" data-original="#000000" class=""></path><path d="m245.512 405.274c-1.6-1.423-3.726-2.094-5.859-1.846-54.863 6.435-100.523 44.854-116.322 97.88-2.645 8.879 11.471 14.029 14.375 4.283 13.274-44.549 50.186-77.535 95.321-85.991v67.325c0 5.018-.538 10.042-1.601 14.933-1.992 9.172 12.576 12.772 14.658 3.184 1.289-5.935 1.942-12.03 1.942-18.116v-76.048c.001-2.142-.914-4.181-2.514-5.604z" fill="#ffffff" data-original="#000000" class=""></path><path d="m272.053 403.428c-2.133-.249-4.26.423-5.859 1.846s-2.515 3.462-2.515 5.604v76.048c0 6.086.653 12.182 1.942 18.116 1.992 9.17 16.74 6.406 14.658-3.184-1.063-4.891-1.601-9.915-1.601-14.933v-67.325c45.136 8.456 82.047 41.442 95.321 85.991 2.723 9.143 17.153 5.042 14.375-4.283-15.797-53.025-61.457-91.445-116.321-97.88z" fill="#ffffff" data-original="#000000" class=""></path><path d="m255.853 272.223c12.169 0 23.58-5.123 32.131-14.425 6.353-6.908-4.405-17.378-11.043-10.15-5.677 6.175-13.166 9.575-21.088 9.575s-15.411-3.4-21.088-9.575c-6.35-6.91-17.685 2.927-11.043 10.15 8.551 9.302 19.962 14.425 32.131 14.425z" fill="#ffffff" data-original="#000000" class=""></path></g></g></svg>