<svg xmlns="http://www.w3.org/2000/svg" version="1.1" xmlns:xlink="http://www.w3.org/1999/xlink" xmlns:svgjs="http://svgjs.com/svgjs" width="512" height="512" x="0" y="0" viewBox="0 0 609.623 609.623" style="enable-background:new 0 0 512 512" xml:space="preserve" class=""><g><g xmlns="http://www.w3.org/2000/svg"><g id="Page-1_71_"><g id="_x30_72---Rental-Car"><path id="Shape_215_" d="m415.041 386.095h-220.48c-9.192.003-17.398 5.762-20.525 14.405-3.128 8.643-.507 18.32 6.555 24.204l32.94 27.433c3.925 3.271 8.871 5.068 13.981 5.08h154.58c5.11-.012 10.055-1.809 13.981-5.08l32.94-27.433c7.062-5.884 9.682-15.561 6.555-24.204-3.129-8.644-11.335-14.403-20.527-14.405zm1.016 23.003-32.93 27.433c-.288.232-.647.358-1.016.356h-154.58c-.37.006-.731-.12-1.016-.356l-32.94-27.433c-.5-.411-.683-1.095-.456-1.701s.815-1.001 1.462-.982h220.48c.649-.023 1.24.369 1.47.977.23.607.047 1.293-.454 1.706z" fill="#fff" data-original="#000000" class=""></path><path id="Shape_214_" d="m487.993 391.175-33.042 27.433c-7.086 5.874-9.724 15.563-6.592 24.218s11.359 14.413 20.563 14.392h79.739c11.223 0 20.321-9.098 20.321-20.321v-30.481c0-11.223-9.098-20.321-20.321-20.321h-46.687c-5.11.014-10.054 1.81-13.981 5.08zm60.668 15.24v30.481h-79.739c-.664.065-1.274-.368-1.433-1.016-.271-.587-.077-1.283.457-1.646l33.052-27.494c.285-.236.646-.359 1.016-.345z" fill="#fff" data-original="#000000" class=""></path><path id="Shape_213_" d="m121.63 391.175c-3.913-3.258-8.838-5.054-13.93-5.08h-46.738c-11.223 0-20.321 9.098-20.321 20.321v30.481c0 11.223 9.098 20.321 20.321 20.321h79.718c9.206.025 17.437-5.731 20.571-14.387s.497-18.348-6.59-24.222zm20.504 44.705c-.159.648-.769 1.081-1.433 1.016h-79.739v-30.481h46.738c.37-.014.731.109 1.016.345l33.062 27.504c.486.387.635 1.062.356 1.616z" fill="#fff" data-original="#000000" class=""></path><g clip-rule="evenodd" fill-rule="evenodd"><path id="Path_174_" d="m132.085 487.698h-71.123c-5.611 0-10.16 4.549-10.16 10.16s4.549 10.16 10.16 10.16h71.123c5.611 0 10.16-4.549 10.16-10.16s-4.549-10.16-10.16-10.16z" fill="#fff" data-original="#000000" class=""></path><path id="Path_173_" d="m548.661 487.698h-71.123c-5.611 0-10.16 4.549-10.16 10.16s4.549 10.16 10.16 10.16h71.123c5.611 0 10.16-4.549 10.16-10.16s-4.549-10.16-10.16-10.16z" fill="#fff" data-original="#000000" class=""></path><path id="Path_172_" d="m396.255 487.698h-182.887c-5.611 0-10.16 4.549-10.16 10.16s4.549 10.16 10.16 10.16h182.887c5.611 0 10.16-4.549 10.16-10.16s-4.549-10.16-10.16-10.16z" fill="#fff" data-original="#000000" class=""></path></g><path id="Shape_212_" d="m609.623 294.651c0-16.834-13.647-30.481-30.481-30.481h-20.321c-8.853.029-17.251 3.931-22.983 10.679l-19.081-57.223c-6.895-20.757-26.318-34.758-48.191-34.738h-327.51c-21.873-.02-41.296 13.981-48.191 34.738l-19.081 57.223c-5.732-6.747-14.129-10.649-22.983-10.679h-20.32c-16.834 0-30.481 13.647-30.481 30.481s13.647 30.481 30.481 30.481h16.114l-37.664 37.665c-5.738 5.701-8.954 13.462-8.931 21.55v133.832c.053 12.871 8.186 24.321 20.321 28.612v32.351c0 16.834 13.647 30.481 30.481 30.481h71.123c16.834 0 30.481-13.647 30.481-30.481v-30.481h304.811v30.481c0 16.834 13.647 30.481 30.481 30.481h71.123c16.834 0 30.481-13.647 30.481-30.481v-32.351c12.135-4.29 20.267-15.741 20.321-28.612v-133.832c.023-8.088-3.193-15.849-8.931-21.55l-37.664-37.665h16.114c16.834 0 30.481-13.647 30.481-30.481zm-497.483-70.594c4.146-12.449 15.795-20.848 28.916-20.849h327.51c13.122.001 24.77 8.4 28.916 20.849l26.915 80.755h-439.172zm-81.659 80.755c-5.611 0-10.16-4.549-10.16-10.16s4.549-10.16 10.16-10.16h20.321c5.611 0 10.16 4.549 10.16 10.16v10.16zm101.604 274.33c0 5.611-4.549 10.16-10.16 10.16h-71.123c-5.611 0-10.16-4.549-10.16-10.16v-30.481h91.443zm436.896 0c0 5.611-4.549 10.16-10.16 10.16h-71.123c-5.611 0-10.16-4.549-10.16-10.16v-30.481h91.443zm17.344-201.978c1.897 1.911 2.966 4.491 2.977 7.183v133.832c0 5.611-4.549 10.16-10.16 10.16h-548.661c-5.611 0-10.16-4.549-10.16-10.16v-133.832c.011-2.693 1.08-5.273 2.977-7.183l52.031-52.031h458.965zm-37.664-72.352v-10.16c0-5.611 4.549-10.16 10.16-10.16h20.321c5.611 0 10.16 4.549 10.16 10.16s-4.549 10.16-10.16 10.16z" fill="#fff" data-original="#000000" class=""></path><path id="Shape_211_" d="m130.348 162.566h93.181c12.871-.053 24.321-8.186 28.612-20.321h13.717c8.117-.021 15.898-3.245 21.652-8.972l8.362-8.362c1.911-1.917 4.507-2.992 7.214-2.987h38.162c5.392.015 10.566-2.129 14.367-5.954l10.16-10.16 10.16 10.16c3.801 3.824 8.975 5.969 14.367 5.954h22.068c5.392.015 10.566-2.129 14.367-5.954l10.16-10.16 10.16 10.16c3.801 3.824 8.975 5.969 14.367 5.954h19.467c4.394-.016 8.668-1.44 12.192-4.064l27.128-20.321c5.117-3.838 8.128-9.861 8.128-16.257s-3.011-12.419-8.128-16.257l-27.128-20.321c-3.522-2.629-7.797-4.054-12.192-4.064h-177.807c-2.735-.015-5.354-1.11-7.285-3.048l-8.362-8.362c-5.707-5.72-13.46-8.927-21.54-8.911h-13.757c-4.29-12.133-15.741-20.265-28.612-20.319h-93.181c-8.091-.02-15.854 3.196-21.56 8.931l-18.573 18.573c-5.738 5.701-8.954 13.462-8.931 21.55v64.457c-.023 8.088 3.193 15.849 8.931 21.55l18.573 18.573c5.704 5.741 13.469 8.958 21.561 8.932zm123.662-121.924h11.888c2.707-.005 5.303 1.07 7.214 2.987l8.362 8.362c5.753 5.726 13.534 8.95 21.652 8.972h177.807l27.088 20.321-27.128 20.321h-19.467l-10.16-10.16c-7.935-7.933-20.798-7.933-28.734 0l-10.16 10.16h-22.068l-10.16-10.16c-7.935-7.933-20.798-7.933-28.734 0l-10.16 10.16h-38.162c-8.099-.019-15.869 3.2-21.581 8.941l-8.372 8.362c-1.926 1.939-4.542 3.035-7.275 3.048h-11.85zm-152.406 72.87v-64.458c.011-2.692 1.08-5.273 2.977-7.183l18.573-18.573c1.907-1.908 4.496-2.979 7.194-2.977h93.181c5.611 0 10.16 4.549 10.16 10.16v101.604c0 5.611-4.549 10.16-10.16 10.16h-93.181c-2.698.002-5.286-1.069-7.194-2.977l-18.573-18.573c-1.897-1.91-2.967-4.491-2.977-7.183z" fill="#fff" data-original="#000000" class=""></path><path id="Shape_210_" d="m142.245 121.925h20.321c11.223 0 20.321-9.098 20.321-20.321v-40.642c0-11.223-9.098-20.321-20.321-20.321h-20.321c-11.223 0-20.321 9.098-20.321 20.321v40.642c.001 11.223 9.099 20.321 20.321 20.321zm0-60.963h20.321v40.642h-20.321z" fill="#fff" data-original="#000000" class=""></path></g></g></g></g></svg>