<svg xmlns="http://www.w3.org/2000/svg" version="1.1" xmlns:xlink="http://www.w3.org/1999/xlink" xmlns:svgjs="http://svgjs.com/svgjs" width="512" height="512" x="0" y="0" viewBox="0 0 64 64" style="enable-background:new 0 0 512 512" xml:space="preserve" class=""><g><path xmlns="http://www.w3.org/2000/svg" d="M40,59H58a1,1,0,0,0,1-1V34a1,1,0,0,0-1-1H40a1,1,0,0,0-1,1V58A1,1,0,0,0,40,59Zm1-6h4v4H41ZM57,41v4H53V41Zm-6,4H47V41h4Zm0,12H47V53h4Zm0-6H47V47h4Zm-6-6H41V41h4Zm0,2v4H41V47Zm8,10V47h4V57Zm4-22v4H41V35Z" fill="#ffffff" data-original="#000000" class=""></path><path xmlns="http://www.w3.org/2000/svg" d="M62,29H51.429L48.2,22.272a5.8,5.8,0,0,0-4.321-3.2A10,10,0,1,0,32.026,19H27a10,10,0,1,0-15.512,8.335l-2.131,4A2.992,2.992,0,0,0,8,31H4a3,3,0,0,0,0,6H5.1A8.177,8.177,0,0,0,3,42.472V50a7.032,7.032,0,0,0,2,4.883V59a4,4,0,0,0,4,4h4a4,4,0,0,0,4-4V57H35v5a1,1,0,0,0,1,1H62a1,1,0,0,0,1-1V30A1,1,0,0,0,62,29ZM30,11a8,8,0,1,1,8,8A8.009,8.009,0,0,1,30,11ZM43,21a3.787,3.787,0,0,1,3.4,2.137L49.211,29H46.167l-2.244-5.385A1,1,0,0,0,43,23H26.159a9.9,9.9,0,0,0,.639-2ZM21.909,36l7.615-11h2.567L24.476,36Zm-5.673-3.236,1.918-3.836A9.989,9.989,0,0,0,24.981,25h2.11L19.476,36h-1.24a2.236,2.236,0,0,1-2-3.236ZM9,19a8,8,0,1,1,8,8A8.009,8.009,0,0,1,9,19ZM3,34a1,1,0,0,1,1-1H8a.994.994,0,0,1,.415.1L7.4,35H4A1,1,0,0,1,3,34ZM15,59a2,2,0,0,1-2,2H9a2,2,0,0,1-2-2V56.305a7.032,7.032,0,0,0,3,.7h5Zm-5-4a5,5,0,0,1-5-5V42.472A6.2,6.2,0,0,1,8.447,36.9a1.009,1.009,0,0,0,.436-.424l4.376-8.2a9.89,9.89,0,0,0,2.654.671L14.447,31.87A4.236,4.236,0,0,0,18.236,38H35v4H19a1,1,0,0,0-.948,1.316l2,6A1,1,0,0,0,21,50H35v5ZM35,44v4H21.721l-1.333-4Zm0-14v6H26.909l7.615-11h7.809L44,29H36A1,1,0,0,0,35,30ZM61,61H37V31H61Z" fill="#ffffff" data-original="#000000" class=""></path><path xmlns="http://www.w3.org/2000/svg" d="M12,42a4,4,0,1,0,4,4A4,4,0,0,0,12,42Zm0,6a2,2,0,1,1,2-2A2,2,0,0,1,12,48Z" fill="#ffffff" data-original="#000000" class=""></path><path xmlns="http://www.w3.org/2000/svg" d="M38,8a1,1,0,0,1,1,1h2a3,3,0,0,0-2-2.816V5H37V6.184A2.993,2.993,0,0,0,38,12a1,1,0,1,1-1,1H35a3,3,0,0,0,2,2.816V17h2V15.816A2.993,2.993,0,0,0,38,10a1,1,0,0,1,0-2Z" fill="#ffffff" data-original="#000000" class=""></path><path xmlns="http://www.w3.org/2000/svg" d="M18,25V23.816A2.993,2.993,0,0,0,17,18a1,1,0,1,1,1-1h2a3,3,0,0,0-2-2.816V13H16v1.184A2.993,2.993,0,0,0,17,20a1,1,0,1,1-1,1H14a3,3,0,0,0,2,2.816V25Z" fill="#ffffff" data-original="#000000" class=""></path></g></svg>