<svg xmlns="http://www.w3.org/2000/svg" version="1.1" xmlns:xlink="http://www.w3.org/1999/xlink" xmlns:svgjs="http://svgjs.com/svgjs" width="512" height="512" x="0" y="0" viewBox="0 0 64 64" style="enable-background:new 0 0 512 512" xml:space="preserve" class=""><g><path xmlns="http://www.w3.org/2000/svg" d="M60,47.142V44A12.013,12.013,0,0,0,48,32H37a27.28,27.28,0,0,0-18.139,6.9l-1.328,1.181L5.746,42.6A3.489,3.489,0,0,0,3,46v3H2a1,1,0,0,0-1,1v4a1,1,0,0,0,1,1H9.09a5.993,5.993,0,0,0,11.82,0H44.09a5.993,5.993,0,0,0,11.82,0H59a3.992,3.992,0,0,0,1-7.858ZM57.159,40H49V34.051A10.019,10.019,0,0,1,57.159,40ZM47,40H40V34h7Zm-9-6v6H20.672A25.264,25.264,0,0,1,37,34ZM18.105,42H57.8a9.983,9.983,0,0,1,.2,2v3H55.644A8.974,8.974,0,0,0,41.95,50H23.05A8.967,8.967,0,0,0,8.923,47.381.989.989,0,0,0,9,47V43.951Zm5.663,10H41.232a8.923,8.923,0,0,0-.173,1H23.941A8.923,8.923,0,0,0,23.768,52Zm-17.6-7.441L7,44.38V46H5A1.481,1.481,0,0,1,6.165,44.559ZM5,48H8a.989.989,0,0,0,.381-.077A9.015,9.015,0,0,0,7.522,49H5ZM3,51H6.525a8.869,8.869,0,0,0-.466,2H3Zm12,7a4,4,0,1,1,4-4A4,4,0,0,1,15,58Zm0-10a6.006,6.006,0,0,0-5.91,5H8.08a6.991,6.991,0,0,1,13.84,0H20.91A6.006,6.006,0,0,0,15,48ZM50,58a4,4,0,1,1,4-4A4,4,0,0,1,50,58Zm0-10a6.006,6.006,0,0,0-5.91,5H43.08a6.991,6.991,0,0,1,13.84,0H55.91A6.006,6.006,0,0,0,50,48Zm9,5h-.059a8.931,8.931,0,0,0-1.463-4H59a2,2,0,0,1,0,4Z" fill="#ffffff" data-original="#000000"></path><circle xmlns="http://www.w3.org/2000/svg" cx="15" cy="54" r="2" fill="#ffffff" data-original="#000000"></circle><circle xmlns="http://www.w3.org/2000/svg" cx="50" cy="54" r="2" fill="#ffffff" data-original="#000000"></circle><rect xmlns="http://www.w3.org/2000/svg" x="33" y="43" width="4" height="2" fill="#ffffff" data-original="#000000"></rect><path xmlns="http://www.w3.org/2000/svg" d="M19.014,19.165A1,1,0,0,0,20,20h1V30a3,3,0,0,0,6,0V28a1,1,0,0,0-.293-.707l-.49-.49.678-1.356A1,1,0,0,0,27,25V23a1,1,0,0,0-.293-.707L26.414,22l.293-.293A1,1,0,0,0,27,21V20h1a1,1,0,0,0,.986-.835l.975-5.825A3.748,3.748,0,0,0,30,12.8,3.805,3.805,0,0,0,26.2,9H25.142A4,4,0,0,1,29,6h5a4,4,0,0,1,3.858,3h-1A4.868,4.868,0,0,0,32,13.862c0,.116,0,.23.012.347l.848,11.867A3.16,3.16,0,0,0,36,29h6a3.16,3.16,0,0,0,3.14-2.924l.848-11.869c.008-.115.012-.229.012-.345A4.868,4.868,0,0,0,41.138,9H39.91A6.006,6.006,0,0,0,34,4H29a6.006,6.006,0,0,0-5.91,5H21.8A3.805,3.805,0,0,0,18,12.8a3.859,3.859,0,0,0,.042.561ZM36.862,11H38v7H34.288l-.281-3.932C34,14,34,13.931,34,13.862A2.865,2.865,0,0,1,36.862,11Zm-2.431,9h9.138l-.143,2H34.574ZM42,27H36a1.153,1.153,0,0,1-1.145-1.066L34.717,24h8.566l-.138,1.934A1.153,1.153,0,0,1,42,27Zm2-13.138c0,.069,0,.138-.007.2L43.712,18H40V11h1.138A2.865,2.865,0,0,1,44,13.862ZM25,20.586l-.707.707a1,1,0,0,0,0,1.414l.707.707v1.35l-.895,1.789a1,1,0,0,0,.188,1.154l.707.707V30a1,1,0,0,1-2,0V20h2ZM21.8,11h4.4A1.8,1.8,0,0,1,28,12.8a1.7,1.7,0,0,1-.015.231L27.153,18H20.847l-.829-4.945A1.8,1.8,0,0,1,21.8,11Z" fill="#ffffff" data-original="#000000"></path></g></svg>