<svg xmlns="http://www.w3.org/2000/svg" version="1.1" xmlns:xlink="http://www.w3.org/1999/xlink" xmlns:svgjs="http://svgjs.com/svgjs" width="512" height="512" x="0" y="0" viewBox="0 0 512 512" style="enable-background:new 0 0 512 512" xml:space="preserve" class=""><g><g xmlns="http://www.w3.org/2000/svg" id="outline"><path d="M452,40H60A36.04,36.04,0,0,0,24,76V372a36.04,36.04,0,0,0,36,36H196.9l-3.623,10.866-7.809,5.207A39.151,39.151,0,0,0,168,456.714V464a8,8,0,0,0,8,8H337.373a8,8,0,0,0,8-8v-7.286a39.15,39.15,0,0,0-17.47-32.641l-8-5.331L315.713,408H452a36.04,36.04,0,0,0,36-36V76A36.04,36.04,0,0,0,452,40ZM319.028,437.385A23.183,23.183,0,0,1,329.362,456H184.011a23.179,23.179,0,0,1,10.333-18.615l10.094-6.729a8,8,0,0,0,3.151-4.126L213.766,408H224a32,32,0,0,0,63.757,3.983A33.267,33.267,0,0,0,288,408h10.533l7.384,18.91a8.01,8.01,0,0,0,3.015,3.746ZM240,408h31.993a17.283,17.283,0,0,1-.118,2.048A16,16,0,0,1,240,408Zm232-36a20.023,20.023,0,0,1-20,20H60a20.023,20.023,0,0,1-20-20V360H472Zm0-28H40V76A20.023,20.023,0,0,1,60,56H452a20.023,20.023,0,0,1,20,20Z" fill="#ffffff" data-original="#000000" class=""></path><path d="M212,104h-7.056L191.155,76.422A8,8,0,0,0,184,72H120a8,8,0,0,0-6.4,3.2L92,104H82a26.03,26.03,0,0,0-26,26v22a8,8,0,0,0,8,8H81.376a24,24,0,0,0,45.248,0h34.752a24,24,0,0,0,45.248,0H224a8,8,0,0,0,8-8V124A20.023,20.023,0,0,0,212,104ZM160,88h19.056l8,16H160Zm-36,0h20v16H112Zm-20,72a8,8,0,1,1,8-8A8.009,8.009,0,0,1,104,160Zm80,0a8,8,0,1,1,8-8A8.009,8.009,0,0,1,184,160Zm32-16h-9.376a24,24,0,0,0-45.248,0H126.624a24,24,0,0,0-45.248,0H72V130a10.011,10.011,0,0,1,10-10H212a4,4,0,0,1,4,4Z" fill="#ffffff" data-original="#000000" class=""></path><path d="M451.76,97.216,432,109.566V104a8,8,0,0,0-8-8H360a8,8,0,0,0-8,8v64a8,8,0,0,0,8,8h64a8,8,0,0,0,8-8V128.434l28.24-17.65a8,8,0,0,0-8.48-13.568ZM416,119.566l-20.779,12.987-4.066-8.131a8,8,0,0,0-14.31,7.156l8,16a8,8,0,0,0,11.395,3.206L416,138.434V160H368V112h48Z" fill="#ffffff" data-original="#000000" class=""></path><path d="M328,112H256a8,8,0,0,0,0,16h72a8,8,0,0,0,0-16Z" fill="#ffffff" data-original="#000000" class=""></path><path d="M256,160h24a8,8,0,0,0,0-16H256a8,8,0,0,0,0,16Z" fill="#ffffff" data-original="#000000" class=""></path><path d="M328,144H304a8,8,0,0,0,0,16h24a8,8,0,0,0,0-16Z" fill="#ffffff" data-original="#000000" class=""></path><path d="M296,264H256a8,8,0,0,0,0,16h40a8,8,0,0,0,0-16Z" fill="#ffffff" data-original="#000000" class=""></path><path d="M328,264h-8a8,8,0,0,0,0,16h8a8,8,0,0,0,0-16Z" fill="#ffffff" data-original="#000000" class=""></path><path d="M328,232H256a8,8,0,0,0,0,16h72a8,8,0,0,0,0-16Z" fill="#ffffff" data-original="#000000" class=""></path><circle cx="256" cy="320" r="8" fill="#ffffff" data-original="#000000" class=""></circle><circle cx="288" cy="320" r="8" fill="#ffffff" data-original="#000000" class=""></circle><circle cx="224" cy="320" r="8" fill="#ffffff" data-original="#000000" class=""></circle><path d="M206.4,195.2A8,8,0,0,0,200,192H128a8,8,0,0,0-6.4,3.2L100,224H82a26.03,26.03,0,0,0-26,26v22a8,8,0,0,0,8,8H81.376a24,24,0,0,0,45.248,0h34.752a24,24,0,0,0,45.248,0H214a18.021,18.021,0,0,0,18-18V232a8,8,0,0,0-1.6-4.8ZM208,224H168V208h28Zm-76-16h20v16H120Zm-28,72a8,8,0,1,1,8-8A8.009,8.009,0,0,1,104,280Zm80,0a8,8,0,1,1,8-8A8.009,8.009,0,0,1,184,280Zm32-18a2,2,0,0,1-2,2h-7.376a24,24,0,0,0-45.248,0H126.624a24,24,0,0,0-45.248,0H72V250a10.011,10.011,0,0,1,10-10H216Z" fill="#ffffff" data-original="#000000" class=""></path><path d="M424,208H360a8,8,0,0,0-8,8v64a8,8,0,0,0,8,8h64a8,8,0,0,0,8-8V216A8,8,0,0,0,424,208Zm-56,27.313L380.687,248,368,260.687ZM379.313,224h25.374L392,236.687ZM392,259.313,404.687,272H379.313ZM403.313,248,416,235.313v25.374Z" fill="#ffffff" data-original="#000000" class=""></path></g></g></svg>