<svg xmlns="http://www.w3.org/2000/svg" version="1.1" xmlns:xlink="http://www.w3.org/1999/xlink" xmlns:svgjs="http://svgjs.com/svgjs" width="512" height="512" x="0" y="0" viewBox="0 0 512 512" style="enable-background:new 0 0 512 512" xml:space="preserve" class=""><g><path xmlns="http://www.w3.org/2000/svg" d="m146.785 415.313-64.626-31.181c-.121-.058-.243-.113-.366-.165-4.099-1.714-8.775-.807-11.64 2.256-2.863 3.063-3.363 7.524-1.305 11.643l13.65 27.326c.001.002.002.005.004.007-.001.003-.002.005-.004.008l-13.65 27.326c-2.058 4.119-1.558 8.58 1.305 11.643 1.899 2.031 4.595 3.114 7.391 3.114 1.421 0 2.867-.28 4.248-.857.124-.052.246-.107.367-.165l64.621-31.179c3.654-1.759 5.924-5.549 5.924-9.89s-2.271-8.129-5.919-9.886zm-58.15 31.176 7.283-14.579c2.671-5.349 2.671-8.112-.003-13.427l-7.279-14.571 44.123 21.289z" fill="#ffffff" data-original="#000000" class=""></path><path xmlns="http://www.w3.org/2000/svg" d="m490.558 52.199c-1.364-3.911-5.637-5.977-9.551-4.613-3.911 1.364-5.977 5.64-4.613 9.551 5.929 17.004 5.409 37.107-1.463 56.603-6.434 18.228-18.167 33.512-30.59 49.694-2.375 3.093-4.828 6.289-7.21 9.469l-16.022 18.561c-1.612 1.863-4.126 4.084-6.946 4.084-2.819 0-5.333-2.221-6.935-4.072l-16.005-18.573c-2.357-3.142-4.785-6.299-7.133-9.355-10.865-14.135-21.202-27.588-27.935-42.914-.037-.091-.078-.179-.118-.267-.946-2.17-1.821-4.377-2.614-6.63-9.318-26.369-6.787-53.557 6.771-72.728 11.862-16.772 31.033-26.009 53.983-26.009 18.999 0 35.319 6.227 47.195 18.007 2.94 2.917 7.689 2.898 10.606-.043 2.917-2.94 2.898-7.689-.043-10.606-14.745-14.627-34.717-22.358-57.758-22.358-27.956 0-51.477 11.489-66.23 32.35-7.218 10.206-11.878 22.193-13.9 35.059h-192.108c-62.304 0-112.991 50.732-112.991 113.091s50.688 113.09 112.991 113.09h193.141c27.268 0 49.451 22.221 49.451 49.533 0 27.297-22.184 49.505-49.451 49.505h-149.555c-12.741-32.619-44.484-55.786-81.534-55.786-48.234 0-87.475 39.288-87.475 87.579s39.241 87.579 87.475 87.579c37.05 0 68.792-23.167 81.534-55.786h149.555c62.288 0 112.963-50.732 112.963-113.091s-50.675-113.091-112.963-113.091h-193.141c-27.283 0-49.479-22.221-49.479-49.533s22.196-49.533 49.479-49.533h50.947c4.142 0 7.5-3.358 7.5-7.5s-3.358-7.5-7.5-7.5h-50.947c-35.554 0-64.479 28.95-64.479 64.533s28.925 64.533 64.479 64.533h193.141c54.017 0 97.963 44.003 97.963 98.091s-43.946 98.091-97.963 98.091h-145.207c1.059-5.437 1.621-11.05 1.621-16.793s-.561-11.356-1.621-16.793h145.207c35.539 0 64.451-28.937 64.451-64.505 0-35.583-28.913-64.533-64.451-64.533h-193.141c-54.033 0-97.991-44.003-97.991-98.091s43.958-98.091 97.991-98.091h190.959c0 10.991 1.793 22.341 5.443 33.558h-110.876c-4.142 0-7.5 3.358-7.5 7.5s3.358 7.5 7.5 7.5h116.966c7.435 15.252 17.731 28.669 27.766 41.725 2.373 3.087 4.827 6.279 7.178 9.415.102.136.208.269.319.397l16.182 18.778c6.629 7.66 13.604 9.268 18.287 9.268 4.684 0 11.659-1.608 18.294-9.275l16.199-18.766c.114-.132.223-.268.328-.408 2.376-3.175 4.856-6.406 7.255-9.531 12.59-16.4 25.609-33.359 32.838-53.839 8-22.697 8.526-46.325 1.481-66.531zm-386.567 444.801c-39.963 0-72.475-32.559-72.475-72.579s32.512-72.579 72.475-72.579c39.979 0 72.503 32.559 72.503 72.579s-32.525 72.579-72.503 72.579z" fill="#ffffff" data-original="#000000" class=""></path><path xmlns="http://www.w3.org/2000/svg" d="m367.03 82.448c0 26.018 21.15 47.185 47.147 47.185 25.982 0 47.12-21.167 47.12-47.185s-21.138-47.185-47.12-47.185c-25.997 0-47.147 21.167-47.147 47.185zm79.267 0c0 17.747-14.409 32.185-32.12 32.185-17.726 0-32.147-14.438-32.147-32.185s14.421-32.185 32.147-32.185c17.711 0 32.12 14.438 32.12 32.185z" fill="#ffffff" data-original="#000000" class=""></path></g></svg>