<svg xmlns="http://www.w3.org/2000/svg" version="1.1" xmlns:xlink="http://www.w3.org/1999/xlink" xmlns:svgjs="http://svgjs.com/svgjs" width="512" height="512" x="0" y="0" viewBox="0 0 512 512" style="enable-background:new 0 0 512 512" xml:space="preserve" class=""><g><g xmlns="http://www.w3.org/2000/svg" id="XMLID_158_"><path id="XMLID_341_" d="m460.571 151.18h-1.63v-108.531c0-23.516-19.131-42.649-42.648-42.649h-106.959c-23.517 0-42.649 19.133-42.649 42.649v108.53h-2.355c-28.358 0-51.43 23.07-51.43 51.429v90.392h-18.57v-19.502c0-15.162-12.336-27.498-27.498-27.498h-59.333c-15.163 0-27.499 12.336-27.499 27.498v19.502h-34.5c-25.089 0-45.5 20.411-45.5 45.5v128c0 25.089 20.411 45.5 45.5 45.5h183.329c12.1 0 23.103-4.757 31.262-12.487 5.494 7.559 14.399 12.487 24.438 12.487 16.652 0 30.2-13.548 30.2-30.2v-10.326h95.441v10.326c0 16.652 13.548 30.2 30.2 30.2s30.2-13.548 30.2-30.2v-11.31c23.588-4.668 41.43-25.509 41.43-50.445v-217.437c0-28.358-23.071-51.428-51.429-51.428zm-151.237-131.18h106.959c12.488 0 22.648 10.16 22.648 22.649v6.851h-152.256v-6.851c0-12.489 10.16-22.649 22.649-22.649zm-22.649 49.5h152.257v81.68h-152.257zm-186.685 243.5h74.329v179h-74.329zm0-39.502c0-4.135 3.363-7.498 7.498-7.498h59.333c4.135 0 7.498 3.363 7.498 7.498v19.502h-74.329zm-80 193.002v-128c0-12.172 8.575-22.374 20-24.896v177.792c-11.425-2.522-20-12.724-20-24.896zm40 25.5v-179h20v179zm134.329 0v-179h20v179zm40-.604v-177.792c11.425 2.522 20 12.724 20 24.896v128c0 12.172-8.575 22.374-20 24.896zm60.4-9.596c0 5.624-4.576 10.2-10.2 10.2s-10.2-4.576-10.2-10.2v-10.326h20.4zm155.842 0c0 5.624-4.576 10.2-10.2 10.2s-10.2-4.576-10.2-10.2v-10.326h20.4zm41.429-61.755c0 17.33-14.099 31.429-31.429 31.429h-186.242v-112.974c0-23.716-18.242-43.242-41.43-45.309v-90.583c0-17.33 14.1-31.429 31.43-31.429h196.242c17.33 0 31.429 14.099 31.429 31.429z" fill="#4f5dec" data-original="#000000"></path><path id="XMLID_393_" d="m411.322 295.002c-13.336-13.336-34.959-13.336-48.295 0-13.336-13.336-34.959-13.336-48.295 0-13.336 13.336-13.336 34.958 0 48.295l42.893 42.893c2.984 2.984 7.821 2.984 10.804 0l42.893-42.893c13.336-13.336 13.336-34.958 0-48.295z" fill="#4f5dec" data-original="#000000"></path><path id="XMLID_397_" d="m126.998 170.775c3.419 3.418 7.909 5.127 12.399 5.127 4.489 0 8.979-1.709 12.398-5.127l42.304-42.304c8.25-8.25 12.794-19.22 12.794-30.887 0-11.668-4.544-22.637-12.794-30.888-8.25-8.25-19.219-12.794-30.887-12.794-8.589 0-16.799 2.463-23.824 7.053-16.926-11.009-39.861-9.092-54.694 5.741-8.25 8.252-12.794 19.221-12.794 30.889 0 11.667 4.544 22.637 12.794 30.887zm-28.161-89.935c4.473-4.473 10.419-6.937 16.744-6.937 6.326 0 12.272 2.464 16.745 6.937 1.876 1.875 4.419 2.929 7.071 2.929s5.196-1.054 7.071-2.929c4.473-4.473 10.419-6.937 16.744-6.937s12.271 2.464 16.744 6.937c9.233 9.233 9.233 24.257 0 33.489l-40.561 40.561-40.56-40.561c-4.473-4.473-6.937-10.419-6.937-16.744.002-6.326 2.466-12.273 6.939-16.745z" fill="#4f5dec" data-original="#000000"></path><path id="XMLID_398_" d="m276.685 216.731h169.568v23.269h-169.568z" fill="#4f5dec" data-original="#000000"></path></g></g></svg>