<svg xmlns="http://www.w3.org/2000/svg" version="1.1" xmlns:xlink="http://www.w3.org/1999/xlink" xmlns:svgjs="http://svgjs.com/svgjs" width="512" height="512" x="0" y="0" viewBox="0 0 512 512" style="enable-background:new 0 0 512 512" xml:space="preserve" class=""><g><g xmlns="http://www.w3.org/2000/svg"><path d="m114.739 500.709c-1.164 0-2.345-.272-3.449-.847-14.395-7.471-61.897-33.084-68.776-48.967-7.064-16.313-11.557-95.958-6.584-116.742 1.541-6.442 3.406-11.986 5.702-16.948 1.74-3.758 6.197-5.396 9.957-3.657 3.759 1.739 5.396 6.197 3.657 9.956-1.874 4.051-3.42 8.676-4.727 14.14-4.561 19.063.426 94.976 5.761 107.292 3.27 7.549 34.688 27.479 61.922 41.615 3.676 1.907 5.11 6.435 3.202 10.11-1.337 2.572-3.954 4.047-6.665 4.048zm342.727-.003c-2.235 0-4.449-.995-5.927-2.897-2.542-3.271-1.95-7.981 1.319-10.523 18.329-14.253 44.142-39.831 44.142-52.08 0-104.601-12.626-156.36-17.294-163.516-4.143-2.477-22.79-6.774-35.235-9.646-8.065-1.858-16.402-3.781-23.252-5.621 3.563 12.47 8.028 30.395 8.028 41.875 0 14.345-12.955 34.021-39.604 60.158-18.755 18.396-37.195 32.936-37.971 33.544-3.256 2.563-7.971 1.996-10.531-1.26s-1.997-7.971 1.26-10.531c.185-.146 18.653-14.713 36.827-32.548 31.607-31.019 35.021-44.854 35.021-49.363 0-12.385-7.015-36.977-10.663-48.438-5.042-2.46-9.339-5.113-12.91-7.653v2.176c0 73.063-36.853 112.908-38.421 114.568-1.417 1.5-3.389 2.35-5.452 2.35s-4.035-.85-5.452-2.35c-1.568-1.66-38.421-41.507-38.421-114.568v-2.176c-7.142 5.08-17.188 10.612-30.276 14.146-6.902 1.861-15.357 3.812-23.534 5.695-3.368.777-6.739 1.555-10.011 2.326-4.036.96-8.071-1.544-9.023-5.575-.952-4.03 1.544-8.07 5.576-9.021 3.297-.779 6.694-1.563 10.088-2.345 8.043-1.854 16.361-3.772 22.996-5.563 19.146-5.166 30.286-15.181 34.185-19.241v-4.645c-2.356-2.11-4.636-4.396-6.825-6.853-12.246-13.733-20.756-31.61-24.258-50.793-10.772-4.354-18.661-18.662-18.661-30.851 0-12.276 4.78-20.712 13.442-24.338-18.73-38.616-28.481-48.874-74.209-47.112-2.8.102-5.414-1.347-6.8-3.772-.339-.57-9.194-15.133-29.286-15.133-20.091 0-28.946 14.563-29.313 15.183-1.387 2.426-3.988 3.849-6.771 3.724-17.333-.662-30.955 4.379-42.903 15.876-41.371 39.806-62.347 158.409-62.347 352.511 0 4.143-3.358 7.5-7.5 7.5s-7.5-3.357-7.5-7.5c0-201.131 21.897-319.974 66.943-363.32 13.912-13.388 30.224-19.992 49.758-20.123 5.126-6.486 17.766-18.851 39.63-18.851 21.798 0 34.427 12.288 39.583 18.79 41.19-.956 57.77 8.934 74.154 36.732v-9.424c0-14.643 8.447-29.601 23.177-41.036 14.867-11.544 33.885-17.901 53.553-17.901s38.688 6.357 53.553 17.901c14.732 11.436 23.18 26.394 23.18 41.036v33.784c10.83 2.704 16.886 11.657 16.886 25.475 0 12.856-7.409 26.955-18.691 31.019-3.521 19.119-12.016 36.932-24.226 50.625-2.19 2.456-4.468 4.741-6.826 6.853v4.614c3.963 4.078 15.258 14.165 34.186 19.271 6.631 1.789 14.942 3.706 22.982 5.56 27.664 6.379 38.522 9.233 42.818 13.946 10.489 11.512 21.34 79.681 21.34 173.829 0 11.108-8.408 24.957-25.704 42.338-11.96 12.02-23.74 21.2-24.234 21.585-1.369 1.062-2.989 1.577-4.596 1.577zm-122.468-179.064c4.272 8.81 8.553 15.526 11.782 20.06 3.229-4.558 7.521-11.318 11.805-20.169l-7.668-85.823c-2.74.194-5.5.194-8.241 0zm-17.071-93.146v15.889c0 16.294 2 30.794 5.034 43.422l4.918-55.053c-3.383-1.125-6.708-2.547-9.952-4.258zm47.786 4.259 4.91 54.955c3.043-12.624 5.05-27.099 5.05-43.326v-15.889c-3.246 1.713-6.573 3.136-9.96 4.26zm114.287 39.124h.01zm-202.568-153.729c-5.396.031-6.801 1.862-7.265 2.468-1.297 1.693-1.983 4.761-1.983 8.871 0 7.796 6.312 17.173 10.275 17.173 3.758 0 6.936 2.781 7.434 6.505 5.08 37.956 31.833 67.688 60.907 67.688s55.828-29.732 60.908-67.688c.498-3.725 3.676-6.505 7.434-6.505 4.802 0 10.275-9.147 10.275-17.173 0-9.643-3.026-11.339-9.386-11.339-4.143 0-7.5-3.357-7.5-7.5v-40.42c0-20.318-26.965-43.938-61.73-43.938-12.627 0-24.228 3.117-33.879 8.061.008 24.926 12.542 30.398 21.97 32.35 10.138 2.096 21.825 1.192 33.128.316 6.167-.478 12.544-.972 18.631-.972 4.142 0 7.5 3.357 7.5 7.5 0 4.144-3.358 7.5-7.5 7.5-5.508 0-11.319.45-17.474.928-12.344.956-25.106 1.941-37.324-.583-18.932-3.916-30.505-16.955-33.279-37.126-8.489 7.83-13.503 17.204-13.503 25.965v40.253c-.001 5.078-3.446 7.666-7.639 7.666zm-79.514 382.556c-1.352 0-2.702-.364-3.895-1.091-2.239-1.359-3.605-3.79-3.605-6.409 0-3.635-1.09-6.28-3.432-8.325-7.226-6.314-24.162-5.679-29.594-4.949-1.92.272-3.924-.199-5.554-1.42l-55.129-41.259c-.999-.666-1.958-1.386-2.875-2.153-.22-.169-.429-.35-.625-.537-6.784-5.979-11.07-14.73-11.07-24.463 0-17.979 14.627-32.607 32.607-32.607 3.625 0 7.191.604 10.565 1.76 4.248-13.073 16.549-22.553 31.021-22.553s26.773 9.479 31.021 22.553c3.374-1.155 6.939-1.76 10.565-1.76 8.398 0 16.064 3.19 21.851 8.425 2.477-13.879 4.75-26.925 5.021-29.401-.127-16.977-12.899-30.744-28.58-30.744-5.896 0-16.813 2.957-35.339 17.044-2.683 2.042-6.396 2.042-9.079 0-18.525-14.087-29.443-17.044-35.339-17.044-15.759 0-28.581 13.905-28.581 30.999 0 4.143-3.358 7.5-7.5 7.5s-7.5-3.357-7.5-7.5c0-25.364 19.55-45.999 43.581-45.999 11.054 0 24.136 5.489 39.879 16.753 15.744-11.265 28.826-16.753 39.879-16.753 24.031 0 43.581 20.635 43.581 45.999 0 .796-.001 3.214-9.274 54.052-.207 9.443-4.446 17.909-11.062 23.741-.197.188-.406.368-.626.538-.917.768-1.876 1.486-2.874 2.15l-37.737 28.242c6.612 1.179 13.419 3.546 18.606 8.064 2.729 2.377 4.834 5.201 6.277 8.39 24.857-13.568 50.357-30.258 53.283-37.013 5.334-12.316 10.321-88.229 5.762-107.291-5.986-25.023-16.725-34.918-49.958-46.033-2.22-.742-4.257-1.392-6.125-1.987-15.514-4.949-22.634-8.146-24.632-24.119-7.976 3.058-16.451 4.653-25.099 4.653s-17.123-1.597-25.099-4.653c-1.999 15.975-9.119 19.171-24.633 24.119-1.869.597-3.906 1.245-6.126 1.988-11.344 3.793-19.581 7.31-25.923 11.063-3.563 2.109-8.164.933-10.274-2.634-2.11-3.563-.931-8.164 2.634-10.273 7.277-4.309 16.431-8.242 28.806-12.381 2.292-.768 4.396-1.438 6.325-2.055 6.637-2.117 11.022-3.516 12.556-5.459 1.292-1.637 1.989-5.366 2.187-11.886-3.817-2.565-7.437-5.517-10.811-8.833-9.485-9.322-16.745-21.286-21.215-34.717-.671.529-1.323 1.02-1.934 1.479-4.299 3.229-5.785 4.56-5.785 8.735s1.486 5.507 5.785 8.735c4.689 3.521 11.776 8.846 11.776 20.729 0 4.143-3.358 7.5-7.5 7.5s-7.5-3.357-7.5-7.5c0-4.177-1.487-5.507-5.785-8.735-4.689-3.521-11.776-8.846-11.776-20.729s7.087-17.206 11.776-20.729c2.184-1.641 3.641-2.79 4.547-4.071-9.2-5.563-15.648-18.314-15.648-29.335 0-13.816 6.055-22.771 16.885-25.476v-2.453c0-42.31 34.421-76.729 76.73-76.729s76.73 34.421 76.73 76.729v2.453c10.83 2.705 16.886 11.658 16.886 25.476 0 12.861-7.415 26.965-18.704 31.022-3.518 18.646-12.125 35.399-24.555 47.615-3.374 3.316-6.993 6.267-10.811 8.833.198 6.519.895 10.249 2.187 11.886 1.533 1.943 5.918 3.342 12.556 5.459 1.929.615 4.032 1.287 6.324 2.054 33.313 11.142 51.707 22.979 59.789 56.769 4.973 20.785.479 100.433-6.584 116.742-6.879 15.883-54.381 41.496-68.776 48.967-1.085.562-2.271.842-3.455.842zm-68.887-58 27.301 20.433 27.301-20.433zm-23.672-17.716c2.718 1.721 5.938 2.716 9.386 2.716h83.173c3.448 0 6.667-.995 9.386-2.716l2.222-1.663c3.648-3.204 5.964-7.889 6-13.104-.001-.078-.001-.156 0-.234-.06-9.657-7.936-17.496-17.607-17.496-4.273 0-8.396 1.555-11.61 4.378-2.291 2.014-5.571 2.438-8.299 1.077s-4.36-4.238-4.13-7.278c.041-.536.06-.969.06-1.361 0-9.709-7.898-17.607-17.607-17.607s-17.607 7.898-17.607 17.607c0 .394.019.825.06 1.361.23 3.04-1.402 5.917-4.13 7.278-2.729 1.36-6.009.936-8.299-1.077-3.214-2.823-7.337-4.378-11.61-4.378-9.709 0-17.607 7.898-17.607 17.607 0 5.267 2.324 10 6 13.229zm119.433-68.265v.02c0-.007 0-.013 0-.02zm-95.14-108.346c8.037 4.377 17.071 6.777 26.68 6.777s18.644-2.4 26.681-6.778c.892-.894 2.009-1.563 3.258-1.917 16.127-10.218 27.69-28.74 30.901-51.771-.132-20.762-8.634-27.301-33.785-36.243-1.355-.481-2.732-.966-4.126-1.457-25.313-8.908-56.815-19.995-56.815-48.841 0-4.144 3.358-7.5 7.5-7.5s7.5 3.356 7.5 7.5c0 18.223 24.861 26.973 46.795 34.691 1.408.495 2.801.985 4.17 1.474 20.645 7.34 38.224 15.565 42.675 38.629 2.246-3.376 3.862-8.067 3.862-12.428 0-9.644-3.026-11.34-9.386-11.34-4.142 0-7.5-3.356-7.5-7.5v-9.089c0-34.038-27.692-61.729-61.73-61.729s-61.73 27.691-61.73 61.729v9.089c0 4.144-3.358 7.5-7.5 7.5-6.359 0-9.385 1.696-9.385 11.34 0 7.796 6.311 17.173 10.275 17.173 3.758 0 6.936 2.781 7.434 6.505 3.113 23.261 14.728 41.976 30.968 52.269 1.249.353 2.365 1.023 3.258 1.917zm217.148 219.823c-4.687 0-8.5-3.813-8.5-8.5s3.813-8.5 8.5-8.5c4.688 0 8.5 3.813 8.5 8.5s-3.813 8.5-8.5 8.5zm0-40c-4.687 0-8.5-3.813-8.5-8.5s3.813-8.5 8.5-8.5c4.688 0 8.5 3.813 8.5 8.5s-3.813 8.5-8.5 8.5zm-190.468-185.588c-.001 0 0 0 0 0-9.057 0-17.52-3.908-23.832-11.005-2.752-3.096-2.475-7.836.621-10.589 3.095-2.752 7.836-2.475 10.588.62 3.426 3.853 7.908 5.974 12.623 5.974s9.197-2.121 12.623-5.974c2.753-3.095 7.494-3.372 10.589-.62 3.095 2.753 3.373 7.493.62 10.589-6.312 7.097-14.776 11.005-23.832 11.005zm190.468-39.963c-.001 0 0 0 0 0-10.83 0-20.961-4.686-28.525-13.19-2.754-3.095-2.477-7.836.619-10.589 3.097-2.753 7.836-2.474 10.589.62 4.68 5.262 10.829 8.159 17.317 8.159s12.64-2.897 17.319-8.159c2.754-3.094 7.494-3.373 10.588-.619 3.095 2.753 3.373 7.493.62 10.588-7.566 8.505-17.698 13.19-28.527 13.19zm-161.577-7.345c-5.889 0-11.778-2.242-16.261-6.726-2.929-2.93-2.929-7.678 0-10.606 2.929-2.929 7.678-2.929 10.606 0 3.118 3.12 8.191 3.12 11.309 0 2.929-2.929 7.678-2.929 10.606 0 2.929 2.93 2.929 7.678 0 10.606-4.482 4.484-10.371 6.726-16.26 6.726zm-57.783 0c-5.89 0-11.778-2.241-16.261-6.726-2.929-2.93-2.929-7.678 0-10.606 2.929-2.929 7.678-2.929 10.606 0 3.119 3.121 8.193 3.118 11.31 0 2.929-2.929 7.677-2.93 10.607.001 2.929 2.929 2.928 7.678 0 10.605-4.484 4.484-10.374 6.726-16.262 6.726zm248.252-47.799c-6.144 0-11.918-2.393-16.263-6.736-2.929-2.93-2.928-7.679.001-10.606 2.93-2.928 7.679-2.929 10.606.001 1.51 1.511 3.519 2.343 5.654 2.343s4.144-.832 5.653-2.343c2.93-2.93 7.679-2.931 10.606-.001 2.929 2.929 2.93 7.678.001 10.606-4.34 4.344-10.116 6.736-16.258 6.736zm-57.784 0c-6.144 0-11.918-2.393-16.263-6.736-2.929-2.93-2.928-7.679.002-10.606 2.929-2.928 7.678-2.929 10.605.001 1.51 1.511 3.52 2.343 5.654 2.343s4.144-.832 5.653-2.343c2.93-2.93 7.678-2.929 10.607-.001 2.929 2.929 2.929 7.678 0 10.606-4.34 4.344-10.115 6.736-16.258 6.736z" fill="#4f5dec" data-original="#000000" class=""></path></g></g></svg>