<svg xmlns="http://www.w3.org/2000/svg" version="1.1" xmlns:xlink="http://www.w3.org/1999/xlink" xmlns:svgjs="http://svgjs.com/svgjs" width="512" height="512" x="0" y="0" viewBox="0 0 60 60" style="enable-background:new 0 0 512 512" xml:space="preserve" class=""><g><g xmlns="http://www.w3.org/2000/svg" id="Page-1" fill="none" fill-rule="evenodd"><g id="033---Car-Rental" fill="rgb(0,0,0)" fill-rule="nonzero"><path id="Shape" d="m28 45h-1c-1.1045695 0-2 .8954305-2 2v7c0 .5522847.4477153 1 1 1s1-.4477153 1-1v-3h1c.5522847 0 1 .4477153 1 1v2c0 .5522847.4477153 1 1 1s1-.4477153 1-1v-2c-.0026037-.740399-.2806479-1.4533329-.78-2 .7990291-.8759347 1.0043504-2.1415341.5232243-3.2251516-.4811262-1.0836174-1.5576099-1.7800954-2.7432243-1.7748484zm-1 2h1c.5522847 0 1 .4477153 1 1s-.4477153 1-1 1h-1z" fill="#4f5dec" data-original="#000000" class=""></path><path id="Shape" d="m37 47c.5522847 0 1-.4477153 1-1s-.4477153-1-1-1h-2c-1.1045695 0-2 .8954305-2 2v6c0 1.1045695.8954305 2 2 2h2c.5522847 0 1-.4477153 1-1s-.4477153-1-1-1h-2v-2h1c.5522847 0 1-.4477153 1-1s-.4477153-1-1-1h-1v-2z" fill="#4f5dec" data-original="#000000" class=""></path><path id="Shape" d="m46 45c-.5522847 0-1 .4477153-1 1v4.513l-3.152-5.043c-.2364371-.3783021-.6948592-.5542376-1.1236828-.4312524-.4288236.1229851-.7243189.5151414-.7243172.9612524v8c0 .5522847.4477153 1 1 1s1-.4477153 1-1v-4.513l3.152 5.043c.2364371.3783021.6948592.5542376 1.1236828.4312524.4288236-.1229851.7243189-.5151414.7243172-.9612524v-8c0-.5522847-.4477153-1-1-1z" fill="#4f5dec" data-original="#000000" class=""></path><path id="Shape" d="m54 45h-4c-.5522847 0-1 .4477153-1 1s.4477153 1 1 1h1v7c0 .5522847.4477153 1 1 1s1-.4477153 1-1v-7h1c.5522847 0 1-.4477153 1-1s-.4477153-1-1-1z" fill="#4f5dec" data-original="#000000" class=""></path><path id="Shape" d="m56 40h-6v-2h1c1.6568542 0 3-1.3431458 3-3v-16c-.0011339-1.3344203-.6676297-2.5803961-1.777-3.322.8469919-1.0460674 1.0158801-2.4863684.4338583-3.7000005-.5820219-1.213632-1.8108937-1.98360889-3.1568583-1.9779995h-4.2l-3.855-8.269c-.4953843-1.05420604-1.5542045-1.72828389-2.719-1.731h-23.452c-1.1647955.00271611-2.2236157.67679396-2.719 1.731l-3.855 8.269h-4.2c-1.3459646-.00560939-2.57483642.7643675-3.15685827 1.9779995-.58202185 1.2136321-.41313362 2.6539331.43385827 3.7000005-1.10937031.7416039-1.77586613 1.9875797-1.777 3.322v16c0 1.6568542 1.34314575 3 3 3v4c0 1.6568542 1.34314575 3 3 3h4c1.6568542 0 3-1.3431458 3-3v-4h27v2h-16c-2.209139 0-4 1.790861-4 4v12c0 2.209139 1.790861 4 4 4h32c2.209139 0 4-1.790861 4-4v-12c0-2.209139-1.790861-4-4-4zm-20-9h-18v-5c0-.5522847.4477153-1 1-1h16c.5522847 0 1 .4477153 1 1zm-1-8h-16c-1.6568542 0-3 1.3431458-3 3v5h-14v-12c0-1.1045695.8954305-2 2-2h9.323l1.748 4.372c.1521275.3795963.520055.6283137.929.628.1273562-.0001189.2535525-.0242047.372-.071.2462643-.0985145.4433028-.2908294.5477625-.5346314.1044598-.2438019.1077826-.5191165.0092375-.7653686l-1.452-3.629h23.046l-1.452 3.628c-.0985451.2462521-.0952223.5215667.0092375.7653686.1044597.243802.3014982.4361169.5477625.5346314.1183814.0471373.2445799.0715628.372.072.408945.0003137.7768725-.2484037.929-.628l1.748-4.372h9.323c1.1045695 0 2 .8954305 2 2v12h-14v-5c0-1.6568542-1.3431458-3-3-3zm-21.975-8 4.164-9h19.622l4.164 9zm36.475-3c.8284271 0 1.5.6715729 1.5 1.5s-.6715729 1.5-1.5 1.5h-1.863l-1.4-3zm-35.132-9.423c.1643067-.35196976.517568-.57694963.906-.577h23.452c.388432.00005037.7416933.22503024.906.577l5.798 12.423h-2.251l-4.553-9.84c-.3288744-.70590523-1.0362468-1.15800001-1.815-1.16h-19.622c-.7787532.00199999-1.4861256.45409477-1.815 1.16l-4.553 9.84h-2.251zm-9.868 9.423h3.263l-1.4 3h-1.863c-.82842712 0-1.5-.6715729-1.5-1.5s.67157288-1.5 1.5-1.5zm-2.5 23v-2h50v2c0 .5522847-.4477153 1-1 1h-48c-.55228475 0-1-.4477153-1-1zm9 7c0 .5522847-.4477153 1-1 1h-4c-.55228475 0-1-.4477153-1-1v-4h6zm31-4h6v2h-6zm16 18c0 1.1045695-.8954305 2-2 2h-32c-1.1045695 0-2-.8954305-2-2v-12c0-1.1045695.8954305-2 2-2h32c1.1045695 0 2 .8954305 2 2z" fill="#4f5dec" data-original="#000000" class=""></path><path id="Shape" d="m32.791 8.022-14 3c-.5401345.1154275-.8844275.6468655-.769 1.187s.6468655.8844275 1.187.769l14-3c.5401345-.11542751.8844275-.64686551.769-1.187s-.6468655-.88442751-1.187-.769z" fill="#4f5dec" data-original="#000000" class=""></path><path id="Shape" d="m33 27h-12c-.5522847 0-1 .4477153-1 1s.4477153 1 1 1h12c.5522847 0 1-.4477153 1-1s-.4477153-1-1-1z" fill="#4f5dec" data-original="#000000" class=""></path><path id="Shape" d="m28 19h-2c-.5522847 0-1 .4477153-1 1s.4477153 1 1 1h2c.5522847 0 1-.4477153 1-1s-.4477153-1-1-1z" fill="#4f5dec" data-original="#000000" class=""></path><path id="Shape" d="m10.5 22h-3c-1.93299658.0000001-3.4999999 1.5670034-3.4999999 3.5s1.56700332 3.4999999 3.4999999 3.5h3c1.9329966 0 3.5-1.5670034 3.5-3.5s-1.5670034-3.5-3.5-3.5zm0 5h-3c-.82842712 0-1.5-.6715729-1.5-1.5s.67157288-1.5 1.5-1.5h3c.8284271 0 1.5.6715729 1.5 1.5s-.6715729 1.5-1.5 1.5z" fill="#4f5dec" data-original="#000000" class=""></path><path id="Shape" d="m43.5 29h3c1.9329966-.0000001 3.4999999-1.5670034 3.4999999-3.5s-1.5670033-3.4999999-3.4999999-3.5h-3c-1.9329966 0-3.5 1.5670034-3.5 3.5s1.5670034 3.5 3.5 3.5zm0-5h3c.8284271 0 1.5.6715729 1.5 1.5s-.6715729 1.5-1.5 1.5h-3c-.8284271 0-1.5-.6715729-1.5-1.5s.6715729-1.5 1.5-1.5z" fill="#4f5dec" data-original="#000000" class=""></path></g></g></g></svg>